<svg width="1728" height="490" viewBox="0 0 1728 490" fill="none" xmlns="http://www.w3.org/2000/svg">
<path d="M944.16 21.7054L1058.53 490.042" stroke="url(#paint0_linear_4017_1298)"/>
<path d="M761.322 23.1182L631.272 492.429" stroke="url(#paint1_linear_4017_1298)"/>
<path d="M855.033 21.3182L848.223 489.944" stroke="url(#paint2_linear_4017_1298)"/>
<path d="M667.453 21.3182L428.434 489.61" stroke="url(#paint3_linear_4017_1298)"/>
<path d="M577.3 21.3182L215.716 488.411" stroke="url(#paint4_linear_4017_1298)"/>
<path d="M480.87 21.3182L6.44118 490.691" stroke="url(#paint5_linear_4017_1298)"/>
<path d="M392.316 21.3182L-203.866 493" stroke="url(#paint6_linear_4017_1298)"/>
<path d="M303.4 19.9637L-328.945 437.655" stroke="url(#paint7_linear_4017_1298)"/>
<path d="M199.827 24.3449L-327.832 325.82" stroke="url(#paint8_linear_4017_1298)"/>
<path d="M105.397 24.0594L-356.515 253.921" stroke="url(#paint9_linear_4017_1298)"/>
<path d="M1040.79 21.7054L1275.45 490.042" stroke="url(#paint10_linear_4017_1298)"/>
<path d="M1132.48 21.7054L1482.5 490.042" stroke="url(#paint11_linear_4017_1298)"/>
<path d="M1226.15 21.7054L1688.57 490.042" stroke="url(#paint12_linear_4017_1298)"/>
<path d="M1315.87 21.7054L1892.67 490.042" stroke="url(#paint13_linear_4017_1298)"/>
<path d="M1409.54 21.7054L2012.95 423.982" stroke="url(#paint14_linear_4017_1298)"/>
<path d="M1468.7 1L2012.95 311.581" stroke="url(#paint15_linear_4017_1298)"/>
<path d="M1597.86 21.7054L2076.06 261.297" stroke="url(#paint16_linear_4017_1298)"/>
<path d="M1699.41 21.7054L2110.57 211.998" stroke="url(#paint17_linear_4017_1298)"/>
<path d="M-329.715 209.04H2010.98" stroke="white" stroke-opacity="0.07"/>
<path d="M-326.757 56.2144H2012.95" stroke="white" stroke-opacity="0.14"/>
<path d="M-326.757 81.8497H2012.95" stroke="white" stroke-opacity="0.2"/>
<path d="M-326.757 109.457H2012.95" stroke="white" stroke-opacity="0.25"/>
<path d="M-326.757 139.036H2012.95" stroke="white" stroke-opacity="0.3"/>
<path d="M-326.757 172.559H2012.95" stroke="white" stroke-opacity="0.35"/>
<path d="M-326.757 211.998H2012.95" stroke="white" stroke-opacity="0.4"/>
<path d="M-326.757 254.395H2012.95" stroke="white" stroke-opacity="0.45"/>
<path d="M-326.757 309.609H2012.95" stroke="white" stroke-opacity="0.5"/>
<path d="M-326.757 373.697H2012.95" stroke="white" stroke-opacity="0.55"/>
<path d="M-326.757 453.561H2012.95" stroke="white" stroke-opacity="0.6"/>
<defs>
<linearGradient id="paint0_linear_4017_1298" x1="1057.84" y1="490.739" x2="942.994" y2="22.6886" gradientUnits="userSpaceOnUse">
<stop stop-color="white"/>
<stop offset="1" stop-color="white" stop-opacity="0"/>
</linearGradient>
<linearGradient id="paint1_linear_4017_1298" x1="630.327" y1="492.711" x2="756.303" y2="22.4813" gradientUnits="userSpaceOnUse">
<stop stop-color="white"/>
<stop offset="1" stop-color="white" stop-opacity="0"/>
</linearGradient>
<linearGradient id="paint2_linear_4017_1298" x1="848.203" y1="490.642" x2="824.331" y2="489.073" gradientUnits="userSpaceOnUse">
<stop stop-color="white"/>
<stop offset="1" stop-color="white" stop-opacity="0"/>
</linearGradient>
<linearGradient id="paint3_linear_4017_1298" x1="428.069" y1="490.302" x2="407.273" y2="478.465" gradientUnits="userSpaceOnUse">
<stop stop-color="white"/>
<stop offset="1" stop-color="white" stop-opacity="0"/>
</linearGradient>
<linearGradient id="paint4_linear_4017_1298" x1="215.17" y1="489.1" x2="196.854" y2="473.694" gradientUnits="userSpaceOnUse">
<stop stop-color="white"/>
<stop offset="1" stop-color="white" stop-opacity="0"/>
</linearGradient>
<linearGradient id="paint5_linear_4017_1298" x1="5.72801" y1="491.383" x2="-10.4861" y2="473.773" gradientUnits="userSpaceOnUse">
<stop stop-color="white"/>
<stop offset="1" stop-color="white" stop-opacity="0"/>
</linearGradient>
<linearGradient id="paint6_linear_4017_1298" x1="-204.759" y1="493.694" x2="-219.015" y2="474.46" gradientUnits="userSpaceOnUse">
<stop stop-color="white"/>
<stop offset="1" stop-color="white" stop-opacity="0"/>
</linearGradient>
<linearGradient id="paint7_linear_4017_1298" x1="-329.891" y1="438.268" x2="-342.448" y2="417.885" gradientUnits="userSpaceOnUse">
<stop stop-color="white"/>
<stop offset="1" stop-color="white" stop-opacity="0"/>
</linearGradient>
<linearGradient id="paint8_linear_4017_1298" x1="-328.622" y1="326.26" x2="-339.668" y2="305.026" gradientUnits="userSpaceOnUse">
<stop stop-color="white"/>
<stop offset="1" stop-color="white" stop-opacity="0"/>
</linearGradient>
<linearGradient id="paint9_linear_4017_1298" x1="-357.207" y1="254.254" x2="-366.862" y2="232.36" gradientUnits="userSpaceOnUse">
<stop stop-color="white"/>
<stop offset="1" stop-color="white" stop-opacity="0"/>
</linearGradient>
<linearGradient id="paint10_linear_4017_1298" x1="1274.02" y1="490.739" x2="1215.52" y2="1.5058" gradientUnits="userSpaceOnUse">
<stop stop-color="white"/>
<stop offset="1" stop-color="white" stop-opacity="0"/>
</linearGradient>
<linearGradient id="paint11_linear_4017_1298" x1="1480.38" y1="490.739" x2="1440.85" y2="-2.32182" gradientUnits="userSpaceOnUse">
<stop stop-color="white"/>
<stop offset="1" stop-color="white" stop-opacity="0"/>
</linearGradient>
<linearGradient id="paint12_linear_4017_1298" x1="1685.77" y1="490.739" x2="1655.76" y2="-3.67047" gradientUnits="userSpaceOnUse">
<stop stop-color="white"/>
<stop offset="1" stop-color="white" stop-opacity="0"/>
</linearGradient>
<linearGradient id="paint13_linear_4017_1298" x1="1889.17" y1="490.739" x2="1865.08" y2="-4.3195" gradientUnits="userSpaceOnUse">
<stop stop-color="white"/>
<stop offset="1" stop-color="white" stop-opacity="0"/>
</linearGradient>
<linearGradient id="paint14_linear_4017_1298" x1="2009.3" y1="424.581" x2="1992.3" y2="-0.976135" gradientUnits="userSpaceOnUse">
<stop stop-color="white"/>
<stop offset="1" stop-color="white" stop-opacity="0"/>
</linearGradient>
<linearGradient id="paint15_linear_4017_1298" x1="2009.66" y1="312.043" x2="1998.42" y2="-16.6515" gradientUnits="userSpaceOnUse">
<stop stop-color="white"/>
<stop offset="1" stop-color="white" stop-opacity="0"/>
</linearGradient>
<linearGradient id="paint16_linear_4017_1298" x1="2073.16" y1="261.653" x2="2065.54" y2="8.02069" gradientUnits="userSpaceOnUse">
<stop stop-color="white"/>
<stop offset="1" stop-color="white" stop-opacity="0"/>
</linearGradient>
<linearGradient id="paint17_linear_4017_1298" x1="2108.07" y1="212.281" x2="2102.49" y2="10.8099" gradientUnits="userSpaceOnUse">
<stop stop-color="white"/>
<stop offset="1" stop-color="white" stop-opacity="0"/>
</linearGradient>
</defs>
</svg>
